<svg xmlns="http://www.w3.org/2000/svg" xmlns:xlink="http://www.w3.org/1999/xlink" width="600" zoomAndPan="magnify" viewBox="0 0 450 449.999984" height="600" preserveAspectRatio="xMidYMid meet" version="1.0"><defs><g/><clipPath id="adc3cf041d"><path d="M 80.914062 32.59375 L 368.914062 32.59375 L 368.914062 351.34375 L 80.914062 351.34375 Z M 80.914062 32.59375 " clip-rule="nonzero"/></clipPath><clipPath id="a485abf4b4"><rect x="0" width="450" y="0" height="191"/></clipPath></defs><g clip-path="url(#adc3cf041d)"><path fill="#8257e7" d="M 364.347656 46.347656 C 360.625 40.210938 354.722656 35.886719 347.699219 34.167969 L 344.613281 33.433594 C 344.269531 33.351562 343.9375 33.28125 343.605469 33.226562 C 341.898438 32.894531 340.160156 32.730469 338.4375 32.730469 C 333.324219 32.730469 328.332031 34.1875 324.015625 36.960938 C 317.984375 40.816406 313.820312 46.8125 312.265625 53.855469 L 300.214844 109.308594 C 293.355469 104.140625 284.597656 101.40625 274.574219 101.355469 C 266.171875 87.847656 251.941406 78.804688 236.058594 77.007812 L 228.238281 76.140625 C 227.636719 76.074219 227.027344 76.039062 226.421875 76.039062 C 221.59375 76.039062 217.035156 78.148438 213.917969 81.824219 C 210.394531 85.96875 209.160156 91.582031 210.613281 96.847656 C 196.019531 92.980469 187.375 87.78125 182.546875 83.875 C 176.21875 78.753906 174.449219 74.421875 174.1875 73.722656 C 172.53125 67.449219 167.136719 62.621094 160.714844 61.671875 C 159.925781 61.558594 159.125 61.5 158.328125 61.5 C 152.410156 61.5 146.929688 64.703125 144.03125 69.855469 C 128.574219 97.320312 129.761719 117.605469 133.476562 129.796875 C 133.523438 129.945312 133.570312 130.089844 133.617188 130.234375 C 112.859375 139.351562 104.375 152.71875 101.007812 163.417969 C 89.683594 164.996094 80.921875 174.769531 80.921875 186.496094 L 80.921875 211.472656 C 80.921875 240.0625 89.734375 266.273438 106.417969 287.261719 C 117.910156 301.722656 133.351562 313.78125 151.203125 322.265625 C 151.148438 322.984375 151.117188 323.699219 151.117188 324.414062 C 151.117188 339.25 163.191406 351.320312 178.023438 351.320312 L 268.21875 351.320312 C 275.40625 351.320312 282.15625 348.523438 287.238281 343.433594 C 292.320312 338.347656 295.121094 331.59375 295.121094 324.414062 C 295.121094 323.707031 295.09375 323.003906 295.035156 322.292969 C 305.496094 317.34375 315.074219 311.199219 323.539062 304.011719 C 350.816406 280.933594 365.257812 249.003906 365.316406 211.691406 L 365.316406 186.503906 C 365.316406 174.945312 356.710938 165.207031 345.574219 163.476562 C 344.84375 160.832031 343.902344 158.324219 342.753906 155.96875 L 367.332031 67.210938 L 367.4375 66.757812 C 367.511719 66.460938 367.578125 66.164062 367.632812 65.863281 C 369.070312 59.15625 367.902344 52.230469 364.347656 46.347656 Z M 364.347656 46.347656 " fill-opacity="1" fill-rule="evenodd"/></g><path fill="#f5e8e0" d="M 360.9375 48.410156 C 357.765625 43.183594 352.753906 39.5 346.769531 38.042969 C 346.769531 38.042969 343.769531 37.324219 343.683594 37.304688 C 343.40625 37.238281 343.140625 37.1875 342.867188 37.140625 C 341.402344 36.847656 339.902344 36.703125 338.421875 36.703125 C 334.070312 36.703125 329.828125 37.949219 326.144531 40.304688 C 321.011719 43.589844 317.460938 48.6875 316.140625 54.691406 L 302.609375 116.941406 C 302.175781 116.453125 301.734375 115.972656 301.277344 115.507812 C 294.679688 108.84375 285.335938 105.320312 274.242188 105.320312 C 273.601562 105.320312 272.957031 105.332031 272.3125 105.359375 C 264.769531 91.886719 251.171875 82.71875 235.609375 80.957031 L 227.789062 80.085938 C 227.332031 80.03125 226.871094 80.007812 226.414062 80.007812 C 222.761719 80.007812 219.304688 81.605469 216.949219 84.382812 C 214.28125 87.527344 213.339844 91.773438 214.449219 95.769531 L 216.257812 102.269531 C 197.300781 98.261719 186.25 91.980469 180.046875 86.957031 C 172.515625 80.863281 170.585938 75.488281 170.382812 74.867188 C 169.167969 70.035156 165.09375 66.335938 160.140625 65.605469 C 159.542969 65.519531 158.929688 65.472656 158.328125 65.472656 C 153.84375 65.472656 149.699219 67.898438 147.496094 71.800781 C 132.730469 98.035156 133.789062 117.179688 137.285156 128.625 C 137.683594 129.925781 138.136719 131.203125 138.632812 132.457031 C 115.183594 141.585938 106.832031 156.007812 104.078125 167.171875 C 93.492188 167.246094 84.894531 175.882812 84.894531 186.488281 L 84.894531 211.464844 C 84.894531 239.148438 93.410156 264.5 109.53125 284.773438 C 121.277344 299.558594 137.074219 311.585938 155.542969 319.878906 C 155.242188 321.355469 155.097656 322.871094 155.097656 324.402344 C 155.097656 337.046875 165.378906 347.328125 178.023438 347.328125 L 268.21875 347.328125 C 274.335938 347.328125 280.09375 344.941406 284.425781 340.609375 C 288.757812 336.277344 291.144531 330.519531 291.144531 324.402344 C 291.144531 322.875 291 321.363281 290.703125 319.898438 C 301.890625 314.894531 312.046875 308.542969 320.976562 300.964844 C 347.332031 278.65625 361.289062 247.789062 361.34375 211.683594 L 361.34375 186.496094 C 361.34375 175.960938 352.871094 167.371094 342.390625 167.179688 C 341.566406 163.25 340.273438 159.648438 338.515625 156.394531 L 363.480469 66.214844 L 363.578125 65.804688 C 363.636719 65.566406 363.691406 65.320312 363.730469 65.074219 C 364.972656 59.355469 363.988281 53.445312 360.9375 48.410156 Z M 360.9375 48.410156 " fill-opacity="1" fill-rule="evenodd"/><path fill="#9639ad" d="M 101.78125 206.992188 L 344.453125 206.992188 L 344.453125 186.484375 C 344.453125 185.164062 343.339844 184.054688 342.019531 184.054688 L 104.210938 184.054688 C 102.890625 184.054688 101.777344 185.167969 101.777344 186.484375 Z M 348.910156 215.921875 L 97.3125 215.921875 C 94.851562 215.921875 92.847656 213.925781 92.847656 211.457031 L 92.847656 186.484375 C 92.847656 180.21875 97.941406 175.125 104.203125 175.125 L 342.011719 175.125 C 348.28125 175.125 353.371094 180.21875 353.371094 186.488281 L 353.371094 211.464844 C 353.375 213.925781 351.378906 215.921875 348.910156 215.921875 Z M 348.910156 215.921875 " fill-opacity="1" fill-rule="evenodd"/><path fill="#9639ad" d="M 270.699219 318.617188 C 268.789062 318.617188 267.019531 317.382812 266.429688 315.464844 C 265.707031 313.105469 267.027344 310.609375 269.382812 309.886719 C 284.964844 305.097656 298.640625 297.761719 310.046875 288.078125 C 331.464844 269.945312 343.273438 245.078125 344.355469 215.929688 L 101.855469 215.929688 C 103.574219 260.933594 131.324219 295.871094 176.828125 309.886719 C 179.191406 310.609375 180.511719 313.113281 179.78125 315.464844 C 179.058594 317.820312 176.558594 319.148438 174.203125 318.417969 C 150.140625 311.007812 129.921875 297.660156 115.746094 279.816406 C 100.761719 260.957031 92.839844 237.324219 92.839844 211.457031 C 92.839844 210.277344 93.3125 209.136719 94.148438 208.300781 C 94.988281 207.464844 96.117188 206.992188 97.304688 206.992188 L 348.90625 206.992188 C 351.371094 206.992188 353.371094 208.992188 353.371094 211.457031 C 353.371094 245.242188 340.386719 274.09375 315.816406 294.882812 C 303.484375 305.351562 288.746094 313.269531 272.007812 318.417969 C 271.578125 318.550781 271.132812 318.617188 270.699219 318.617188 Z M 270.699219 318.617188 " fill-opacity="1" fill-rule="evenodd"/><path fill="#9639ad" d="M 178.015625 318.367188 C 174.6875 318.367188 171.980469 321.070312 171.980469 324.402344 C 171.980469 327.730469 174.6875 330.4375 178.015625 330.4375 L 268.21875 330.4375 C 271.550781 330.4375 274.25 327.730469 274.25 324.410156 C 274.25 321.078125 271.542969 318.371094 268.214844 318.371094 Z M 268.214844 339.367188 L 178.015625 339.367188 C 169.757812 339.367188 163.050781 332.652344 163.050781 324.402344 C 163.050781 316.148438 169.757812 309.4375 178.015625 309.4375 L 268.21875 309.4375 C 276.472656 309.4375 283.1875 316.148438 283.1875 324.402344 C 283.179688 332.652344 276.464844 339.367188 268.214844 339.367188 Z M 268.214844 339.367188 " fill-opacity="1" fill-rule="evenodd"/><path fill="#9639ad" d="M 331.027344 184.054688 C 330.988281 184.054688 330.941406 184.054688 330.902344 184.054688 C 328.441406 183.988281 326.496094 181.9375 326.554688 179.472656 C 326.800781 170.4375 324.527344 163.714844 319.808594 159.511719 C 311.957031 152.503906 299.472656 154.175781 299.351562 154.191406 C 297.992188 154.382812 296.613281 153.9375 295.625 152.988281 C 294.636719 152.039062 294.132812 150.6875 294.269531 149.320312 C 295.296875 139.164062 293.621094 131.789062 289.253906 127.382812 C 283.988281 122.050781 275.617188 121.945312 271.09375 122.347656 C 269.089844 122.535156 267.050781 122.652344 265.082031 122.773438 L 264.75 122.792969 C 262.28125 122.945312 260.167969 121.070312 260.019531 118.609375 C 259.867188 116.144531 261.738281 114.03125 264.207031 113.878906 L 264.539062 113.859375 C 266.449219 113.746094 268.40625 113.625 270.28125 113.453125 C 276.378906 112.902344 287.761719 113.167969 295.609375 121.101562 C 301.0625 126.613281 303.695312 134.660156 303.476562 145.070312 C 309.253906 145.15625 318.523438 146.429688 325.695312 152.789062 C 332.511719 158.828125 335.796875 167.886719 335.484375 179.710938 C 335.417969 182.136719 333.433594 184.054688 331.027344 184.054688 Z M 331.027344 184.054688 " fill-opacity="1" fill-rule="evenodd"/><path fill="#9639ad" d="M 115.328125 184.054688 C 113.011719 184.054688 111.054688 182.269531 110.878906 179.921875 C 110.160156 170.242188 112.78125 147.5625 150.070312 137.027344 C 148.210938 134.363281 146.269531 130.808594 144.894531 126.300781 C 141.855469 116.34375 141.046875 99.484375 154.425781 75.703125 C 155.335938 74.089844 157.140625 73.207031 158.972656 73.472656 C 160.800781 73.746094 162.273438 75.117188 162.671875 76.921875 C 162.6875 76.957031 164.703125 84.789062 175.019531 93.140625 C 184.78125 101.042969 204.074219 111.003906 240.566406 113.566406 C 243.027344 113.738281 244.875 115.875 244.703125 118.335938 C 244.53125 120.796875 242.394531 122.640625 239.933594 122.476562 C 186.289062 118.699219 165.777344 99.589844 158.183594 87.933594 C 142.738281 121.746094 160.789062 135.855469 160.980469 136.007812 C 162.382812 137.054688 163.039062 138.828125 162.667969 140.539062 C 162.289062 142.242188 160.949219 143.578125 159.238281 143.949219 C 123.191406 151.683594 119.035156 169.386719 119.765625 179.257812 C 119.945312 181.71875 118.101562 183.855469 115.648438 184.042969 C 115.546875 184.054688 115.433594 184.054688 115.328125 184.054688 Z M 115.328125 184.054688 " fill-opacity="1" fill-rule="evenodd"/><path fill="#9639ad" d="M 268.566406 169.867188 C 268.398438 169.097656 264.019531 151.050781 228.386719 150.945312 C 225.242188 150.945312 221.992188 150.808594 218.164062 150.496094 C 215.707031 150.296875 213.863281 148.148438 214.0625 145.6875 C 214.261719 143.226562 216.410156 141.402344 218.871094 141.59375 C 222.460938 141.878906 225.480469 142.011719 228.398438 142.011719 C 271.847656 142.144531 277.121094 167.066406 277.328125 168.128906 L 268.558594 169.804688 Z M 268.566406 169.867188 " fill-opacity="1" fill-rule="evenodd"/><path fill="#9639ad" d="M 188.140625 142.5625 C 187.476562 142.5625 186.800781 142.414062 186.164062 142.097656 C 174.804688 136.484375 169.84375 130.15625 169.632812 129.890625 C 168.125 127.941406 168.484375 125.136719 170.441406 123.628906 C 172.390625 122.128906 175.171875 122.480469 176.683594 124.410156 C 176.761719 124.511719 180.816406 129.492188 190.117188 134.089844 C 192.324219 135.183594 193.234375 137.859375 192.140625 140.074219 C 191.363281 141.644531 189.777344 142.5625 188.140625 142.5625 Z M 188.140625 142.5625 " fill-opacity="1" fill-rule="evenodd"/><path fill="#9639ad" d="M 232.484375 97.597656 L 232.824219 98.8125 C 236.433594 111.621094 247.742188 120.625 260.710938 121.597656 C 257.679688 108.957031 246.980469 99.238281 233.738281 97.738281 Z M 263.058594 130.621094 C 245.175781 130.621094 229.148438 118.675781 224.21875 101.222656 L 222.101562 93.625 C 221.707031 92.199219 222.042969 90.667969 223.003906 89.53125 C 223.96875 88.40625 225.425781 87.820312 226.898438 87.988281 L 234.726562 88.855469 C 253.851562 91.019531 268.835938 106.507812 270.371094 125.679688 C 270.460938 126.859375 270.085938 128.027344 269.316406 128.929688 C 268.550781 129.832031 267.449219 130.390625 266.269531 130.488281 C 265.195312 130.574219 264.128906 130.621094 263.058594 130.621094 Z M 263.058594 130.621094 " fill-opacity="1" fill-rule="evenodd"/><path fill="#9639ad" d="M 174.453125 149.785156 C 185.644531 156.378906 200.058594 155.449219 210.34375 147.007812 L 211.296875 146.214844 L 210.203125 145.625 C 198.480469 139.265625 184.164062 141.128906 174.453125 149.785156 Z M 190.40625 163.046875 C 181.3125 163.046875 172.21875 160 164.808594 153.90625 C 162.90625 152.339844 162.625 149.527344 164.191406 147.621094 C 176.417969 132.742188 197.550781 128.597656 214.441406 137.773438 L 221.378906 141.488281 C 222.6875 142.191406 223.570312 143.496094 223.707031 144.984375 C 223.859375 146.460938 223.265625 147.921875 222.109375 148.871094 L 216.027344 153.898438 C 208.597656 159.996094 199.496094 163.046875 190.40625 163.046875 Z M 190.40625 163.046875 " fill-opacity="1" fill-rule="evenodd"/><path fill="#9639ad" d="M 325.0625 162.875 C 324.664062 162.875 324.273438 162.820312 323.871094 162.707031 C 321.496094 162.050781 320.101562 159.589844 320.757812 157.214844 L 347.09375 62.101562 C 347.121094 62.003906 347.132812 61.917969 347.152344 61.835938 C 347.167969 61.785156 347.171875 61.722656 347.1875 61.671875 C 347.566406 60.117188 347.320312 58.519531 346.496094 57.152344 C 345.675781 55.792969 344.367188 54.832031 342.820312 54.460938 L 340.207031 53.835938 C 340.0625 53.808594 339.929688 53.785156 339.824219 53.757812 C 339.804688 53.75 339.777344 53.75 339.757812 53.742188 C 338.183594 53.398438 336.585938 53.679688 335.257812 54.535156 C 333.917969 55.390625 332.996094 56.722656 332.652344 58.292969 L 312.527344 150.847656 C 312.003906 153.253906 309.621094 154.789062 307.210938 154.261719 C 304.804688 153.738281 303.277344 151.359375 303.804688 148.949219 L 323.929688 56.382812 C 324.792969 52.476562 327.101562 49.152344 330.445312 47.011719 C 333.726562 44.90625 337.621094 44.191406 341.449219 44.972656 C 341.628906 45 341.785156 45.035156 341.917969 45.074219 C 341.964844 45.082031 342.019531 45.09375 342.066406 45.105469 L 344.925781 45.789062 C 348.8125 46.738281 352.074219 49.132812 354.136719 52.542969 C 356.148438 55.875 356.785156 59.765625 355.921875 63.554688 C 355.902344 63.707031 355.871094 63.839844 355.84375 63.953125 C 355.824219 64.050781 355.796875 64.152344 355.769531 64.25 L 329.363281 159.609375 C 328.816406 161.574219 327.019531 162.875 325.0625 162.875 Z M 325.0625 162.875 " fill-opacity="1" fill-rule="evenodd"/><g transform="matrix(1, 0, 0, 1, 0, 259)"><g clip-path="url(#a485abf4b4)"><g fill="#8257e7" fill-opacity="1"><g transform="translate(5.908911, 47.007213)"><g><path d="M 60.75 45.671875 C 61.539062 45.640625 62.066406 45.972656 62.328125 46.671875 C 62.597656 47.367188 62.644531 48.066406 62.46875 48.765625 C 62.289062 49.472656 61.878906 49.851562 61.234375 49.90625 C 60.203125 49.96875 58.78125 50.175781 56.96875 50.53125 C 55.15625 50.882812 53.15625 51.179688 50.96875 51.421875 C 48.789062 51.660156 46.582031 51.703125 44.34375 51.546875 C 42.101562 51.390625 40.007812 50.90625 38.0625 50.09375 C 36.125 49.289062 34.492188 47.972656 33.171875 46.140625 C 32.046875 44.578125 31.582031 42.988281 31.78125 41.375 C 31.988281 39.769531 32.695312 38.207031 33.90625 36.6875 C 35.125 35.164062 36.65625 33.742188 38.5 32.421875 C 39.34375 31.816406 40.269531 31.21875 41.28125 30.625 C 42.289062 30.039062 43.375 29.46875 44.53125 28.90625 C 43.582031 27.40625 42.703125 25.90625 41.890625 24.40625 C 41.085938 22.914062 40.382812 21.410156 39.78125 19.890625 C 38.769531 20.003906 37.75 20.125 36.71875 20.25 C 35.695312 20.382812 34.679688 20.503906 33.671875 20.609375 C 29.941406 20.992188 26.191406 21.023438 22.421875 20.703125 C 18.660156 20.378906 15.253906 19.601562 12.203125 18.375 C 9.148438 17.15625 6.753906 15.335938 5.015625 12.921875 C 2.828125 9.867188 1.59375 6.992188 1.3125 4.296875 C 1.039062 1.609375 1.460938 -0.796875 2.578125 -2.921875 C 3.691406 -5.054688 5.171875 -6.78125 7.015625 -8.09375 C 8.847656 -9.414062 10.867188 -10.3125 13.078125 -10.78125 C 15.285156 -11.25 17.398438 -11.1875 19.421875 -10.59375 C 21.441406 -10.007812 23.09375 -8.828125 24.375 -7.046875 C 24.863281 -6.367188 24.835938 -5.835938 24.296875 -5.453125 C 22.828125 -4.390625 22.09375 -2.890625 22.09375 -0.953125 C 22.09375 0.972656 22.753906 2.859375 24.078125 4.703125 C 25.585938 6.796875 27.488281 8.359375 29.78125 9.390625 C 32.082031 10.429688 34.65625 11.085938 37.5 11.359375 C 36.757812 6.640625 37.054688 2.273438 38.390625 -1.734375 C 39.722656 -5.742188 42.066406 -8.957031 45.421875 -11.375 C 47.785156 -13.070312 50.132812 -13.992188 52.46875 -14.140625 C 54.8125 -14.296875 57.003906 -13.851562 59.046875 -12.8125 C 61.085938 -11.78125 62.789062 -10.316406 64.15625 -8.421875 C 65.988281 -5.867188 66.664062 -3.523438 66.1875 -1.390625 C 65.71875 0.742188 64.703125 2.375 63.140625 3.5 C 62.671875 3.894531 62.1875 4.070312 61.6875 4.03125 C 61.1875 3.988281 60.78125 3.707031 60.46875 3.1875 C 59.945312 2.269531 59.210938 1.488281 58.265625 0.84375 C 57.316406 0.207031 56.195312 -0.0859375 54.90625 -0.046875 C 53.625 -0.00390625 52.15625 0.609375 50.5 1.796875 C 47.050781 4.273438 45.175781 7.519531 44.875 11.53125 C 45.59375 11.488281 46.316406 11.425781 47.046875 11.34375 C 47.773438 11.269531 48.515625 11.195312 49.265625 11.125 C 57.835938 10.125 64.925781 9.953125 70.53125 10.609375 C 76.144531 11.265625 80.609375 12.503906 83.921875 14.328125 C 87.234375 16.160156 89.773438 18.3125 91.546875 20.78125 C 93.242188 23.144531 93.859375 25.34375 93.390625 27.375 C 92.921875 29.414062 91.769531 31.097656 89.9375 32.421875 C 87.757812 33.921875 85.550781 34.742188 83.3125 34.890625 C 81.070312 35.035156 79.4375 34.394531 78.40625 32.96875 C 78.09375 32.519531 77.925781 32.023438 77.90625 31.484375 C 77.894531 30.953125 77.691406 30.457031 77.296875 30 C 76.816406 29.320312 75.703125 29 73.953125 29.03125 C 72.210938 29.0625 69.644531 29.648438 66.25 30.796875 C 64.582031 31.398438 62.828125 32.070312 60.984375 32.8125 C 59.140625 33.5625 57.566406 34.40625 56.265625 35.34375 C 54.878906 36.332031 53.9375 37.398438 53.4375 38.546875 C 52.945312 39.691406 53.148438 40.890625 54.046875 42.140625 C 54.785156 43.171875 55.726562 44.035156 56.875 44.734375 C 58.019531 45.441406 59.3125 45.753906 60.75 45.671875 Z M 49.796875 26.640625 C 53.585938 25.273438 56.691406 24.316406 59.109375 23.765625 C 61.523438 23.210938 63.472656 22.78125 64.953125 22.46875 C 66.429688 22.15625 67.617188 21.679688 68.515625 21.046875 C 69.140625 20.585938 69.253906 20.085938 68.859375 19.546875 C 68.535156 19.097656 68.03125 18.75 67.34375 18.5 C 66.65625 18.257812 65.375 18.0625 63.5 17.90625 C 60.800781 17.8125 57.972656 17.890625 55.015625 18.140625 C 52.066406 18.390625 49.066406 18.703125 46.015625 19.078125 C 46.398438 20.285156 46.925781 21.515625 47.59375 22.765625 C 48.257812 24.023438 48.992188 25.316406 49.796875 26.640625 Z M 49.796875 26.640625 "/></g></g></g><g fill="#8257e7" fill-opacity="1"><g transform="translate(51.201885, 105.756653)"><g><path d="M 43.9375 11.015625 C 36.4375 13.828125 29.828125 15.039062 24.109375 14.65625 L 15.28125 16.0625 L 15.125 16.5 C 16.414062 16.957031 17.5625 17.695312 18.5625 18.71875 C 19.570312 19.738281 20.179688 20.90625 20.390625 22.21875 C 20.597656 23.539062 20.085938 24.910156 18.859375 26.328125 C 17.628906 27.734375 16.066406 28.785156 14.171875 29.484375 C 12.285156 30.179688 10.253906 30.351562 8.078125 30 C 5.898438 29.644531 3.816406 28.597656 1.828125 26.859375 C 0.328125 25.546875 -0.582031 24.234375 -0.90625 22.921875 C -1.226562 21.617188 -1.171875 20.382812 -0.734375 19.21875 C -0.304688 18.0625 0.28125 17.070312 1.03125 16.25 C 1.78125 15.4375 2.46875 14.875 3.09375 14.5625 C 3.851562 14.195312 4.453125 14.203125 4.890625 14.578125 C 5.328125 14.960938 5.4375 15.28125 5.21875 15.53125 C 4.601562 16.226562 4.453125 17.046875 4.765625 17.984375 C 5.085938 18.929688 5.644531 19.75 6.4375 20.4375 C 7.269531 21.164062 8.207031 21.617188 9.25 21.796875 C 10.300781 21.984375 11.171875 21.679688 11.859375 20.890625 C 12.179688 20.515625 12.34375 20.085938 12.34375 19.609375 C 12.351562 19.140625 12.128906 18.707031 11.671875 18.3125 C 11.128906 17.84375 10.59375 17.519531 10.0625 17.34375 C 9.53125 17.164062 9.023438 17.054688 8.546875 17.015625 C 7.921875 16.972656 7.503906 16.710938 7.296875 16.234375 C 7.085938 15.765625 7.164062 15.273438 7.53125 14.765625 C 7.90625 14.253906 8.5625 13.925781 9.5 13.78125 L 16.046875 12.796875 C 14.148438 11.953125 12.457031 10.878906 10.96875 9.578125 C 8.476562 7.398438 6.929688 5.054688 6.328125 2.546875 C 5.734375 0.046875 5.859375 -2.457031 6.703125 -4.96875 C 7.546875 -7.476562 8.90625 -9.816406 10.78125 -11.984375 C 12.707031 -14.179688 15 -16.078125 17.65625 -17.671875 C 20.320312 -19.265625 23.160156 -20.394531 26.171875 -21.0625 C 29.179688 -21.738281 32.160156 -21.796875 35.109375 -21.234375 C 38.054688 -20.679688 40.757812 -19.332031 43.21875 -17.1875 C 46.207031 -14.582031 47.710938 -11.910156 47.734375 -9.171875 C 47.765625 -6.429688 46.894531 -4.046875 45.125 -2.015625 C 43.5625 -0.222656 41.957031 0.921875 40.3125 1.421875 C 38.664062 1.921875 37.140625 1.992188 35.734375 1.640625 C 34.328125 1.285156 33.164062 0.707031 32.25 -0.09375 C 31.164062 -1.039062 30.515625 -1.929688 30.296875 -2.765625 C 30.085938 -3.609375 30.164062 -4.238281 30.53125 -4.65625 C 30.851562 -5.03125 31.234375 -5.242188 31.671875 -5.296875 C 32.117188 -5.347656 32.628906 -5.445312 33.203125 -5.59375 C 33.773438 -5.75 34.394531 -6.207031 35.0625 -6.96875 C 35.5625 -7.539062 35.8125 -8.207031 35.8125 -8.96875 C 35.820312 -9.738281 35.351562 -10.539062 34.40625 -11.375 C 32.988281 -12.601562 31.359375 -12.9375 29.515625 -12.375 C 27.679688 -11.820312 26.078125 -10.757812 24.703125 -9.1875 C 23.265625 -7.53125 22.523438 -5.800781 22.484375 -4 C 22.441406 -2.195312 22.953125 -0.503906 24.015625 1.078125 C 25.085938 2.671875 26.5625 4.03125 28.4375 5.15625 C 30.320312 6.28125 32.476562 7.039062 34.90625 7.4375 C 37.332031 7.832031 39.867188 7.691406 42.515625 7.015625 C 43.273438 6.804688 43.863281 7.007812 44.28125 7.625 C 44.695312 8.238281 44.898438 8.90625 44.890625 9.625 C 44.878906 10.351562 44.5625 10.816406 43.9375 11.015625 Z M 43.9375 11.015625 "/></g></g></g><g fill="#8257e7" fill-opacity="1"><g transform="translate(78.75858, 133.188718)"><g><path d="M 7.5625 4.421875 C 5.132812 3.003906 3.890625 0.9375 3.828125 -1.78125 C 3.765625 -4.507812 4.664062 -7.46875 6.53125 -10.65625 C 7.695312 -12.65625 9.191406 -14.640625 11.015625 -16.609375 C 12.835938 -18.578125 14.875 -20.367188 17.125 -21.984375 C 19.382812 -23.597656 21.773438 -24.867188 24.296875 -25.796875 C 26.816406 -26.722656 29.363281 -27.144531 31.9375 -27.0625 C 34.507812 -26.988281 37.039062 -26.226562 39.53125 -24.78125 C 40.957031 -23.945312 41.984375 -23.171875 42.609375 -22.453125 C 43.242188 -21.734375 43.648438 -21.0625 43.828125 -20.4375 C 44.015625 -19.820312 44.175781 -19.300781 44.3125 -18.875 C 44.445312 -18.445312 44.753906 -18.09375 45.234375 -17.8125 C 46.035156 -17.34375 46.816406 -17.179688 47.578125 -17.328125 C 48.335938 -17.484375 49.160156 -17.609375 50.046875 -17.703125 C 50.929688 -17.796875 51.921875 -17.523438 53.015625 -16.890625 C 53.960938 -16.328125 54.476562 -15.703125 54.5625 -15.015625 C 54.644531 -14.335938 54.445312 -13.59375 53.96875 -12.78125 C 53.1875 -11.457031 52.039062 -10.351562 50.53125 -9.46875 C 49.03125 -8.59375 47.265625 -7.347656 45.234375 -5.734375 C 42.515625 -3.804688 40.90625 -2.0625 40.40625 -0.5 C 39.914062 1.0625 40.457031 2.300781 42.03125 3.21875 C 43.257812 3.9375 44.507812 4.238281 45.78125 4.125 C 47.0625 4.007812 48.398438 3.59375 49.796875 2.875 C 50.503906 2.519531 51.109375 2.601562 51.609375 3.125 C 52.109375 3.644531 52.421875 4.257812 52.546875 4.96875 C 52.671875 5.6875 52.472656 6.210938 51.953125 6.546875 C 50.117188 7.703125 48.125 9.007812 45.96875 10.46875 C 43.8125 11.925781 41.59375 13.234375 39.3125 14.390625 C 37.03125 15.546875 34.769531 16.285156 32.53125 16.609375 C 30.300781 16.929688 28.191406 16.507812 26.203125 15.34375 C 23.722656 13.894531 22.554688 11.867188 22.703125 9.265625 C 22.859375 6.660156 24.015625 4.015625 26.171875 1.328125 L 25.875 1.15625 C 22.75 3.226562 19.546875 4.660156 16.265625 5.453125 C 12.992188 6.242188 10.09375 5.898438 7.5625 4.421875 Z M 23.375 -6.171875 C 24.601562 -5.453125 25.890625 -5.175781 27.234375 -5.34375 C 28.578125 -5.507812 29.8125 -5.945312 30.9375 -6.65625 C 32.0625 -7.375 32.914062 -8.234375 33.5 -9.234375 C 34.195312 -10.429688 34.40625 -11.554688 34.125 -12.609375 C 33.851562 -13.660156 33.144531 -14.519531 32 -15.1875 C 30.757812 -15.914062 29.492188 -16.210938 28.203125 -16.078125 C 26.910156 -15.953125 25.710938 -15.519531 24.609375 -14.78125 C 23.515625 -14.050781 22.660156 -13.164062 22.046875 -12.125 C 21.347656 -10.925781 21.117188 -9.789062 21.359375 -8.71875 C 21.597656 -7.65625 22.269531 -6.804688 23.375 -6.171875 Z M 23.375 -6.171875 "/></g></g></g><g fill="#8257e7" fill-opacity="1"><g transform="translate(126.345658, 156.864458)"><g><path d="M 26.21875 -39.484375 C 25.550781 -39.742188 25.179688 -40.164062 25.109375 -40.75 C 25.046875 -41.34375 25.082031 -41.816406 25.21875 -42.171875 C 25.34375 -42.484375 25.882812 -42.878906 26.84375 -43.359375 C 27.800781 -43.847656 28.976562 -44.363281 30.375 -44.90625 C 31.769531 -45.445312 33.21875 -45.929688 34.71875 -46.359375 C 36.21875 -46.785156 37.566406 -47.085938 38.765625 -47.265625 C 39.972656 -47.453125 40.832031 -47.445312 41.34375 -47.25 C 42.007812 -46.988281 42.613281 -46.347656 43.15625 -45.328125 C 43.707031 -44.304688 44.125 -43.25 44.40625 -42.15625 C 44.695312 -41.070312 44.765625 -40.265625 44.609375 -39.734375 C 44.535156 -39.410156 43.921875 -39.160156 42.765625 -38.984375 C 41.609375 -38.816406 40.191406 -38.71875 38.515625 -38.6875 C 36.847656 -38.664062 35.132812 -38.6875 33.375 -38.75 C 31.625 -38.8125 30.09375 -38.910156 28.78125 -39.046875 C 27.476562 -39.179688 26.625 -39.328125 26.21875 -39.484375 Z M 6.921875 2.71875 C 4.359375 1.707031 2.90625 0.0546875 2.5625 -2.234375 C 2.21875 -4.523438 2.566406 -7.007812 3.609375 -9.6875 C 4.316406 -11.488281 5.242188 -13.316406 6.390625 -15.171875 C 7.546875 -17.035156 8.765625 -18.785156 10.046875 -20.421875 C 14.035156 -25.304688 17.460938 -28.921875 20.328125 -31.265625 C 23.191406 -33.609375 25.726562 -34.347656 27.9375 -33.484375 C 29.6875 -32.796875 30.113281 -31.296875 29.21875 -28.984375 C 28.613281 -27.441406 27.695312 -25.972656 26.46875 -24.578125 C 25.238281 -23.191406 24.035156 -21.828125 22.859375 -20.484375 C 21.679688 -19.140625 20.820312 -17.78125 20.28125 -16.40625 C 19.78125 -15.113281 19.722656 -14.019531 20.109375 -13.125 C 20.503906 -12.238281 21.21875 -11.59375 22.25 -11.1875 C 23.425781 -10.71875 24.550781 -10.6875 25.625 -11.09375 C 26.707031 -11.507812 27.851562 -12.132812 29.0625 -12.96875 C 29.71875 -13.414062 30.332031 -13.4375 30.90625 -13.03125 C 31.488281 -12.625 31.890625 -12.066406 32.109375 -11.359375 C 32.335938 -10.648438 32.238281 -10.117188 31.8125 -9.765625 C 30.976562 -9.140625 29.910156 -8.191406 28.609375 -6.921875 C 27.316406 -5.648438 25.828125 -4.304688 24.140625 -2.890625 C 22.460938 -1.472656 20.675781 -0.203125 18.78125 0.921875 C 16.882812 2.046875 14.9375 2.820312 12.9375 3.25 C 10.9375 3.675781 8.929688 3.5 6.921875 2.71875 Z M 6.921875 2.71875 "/></g></g></g><g fill="#8257e7" fill-opacity="1"><g transform="translate(146.789248, 165.05034)"><g/></g></g><g fill="#8257e7" fill-opacity="1"><g transform="translate(178.609903, 175.325114)"><g><path d="M 10.796875 4.046875 C 7.429688 3.867188 4.726562 3.050781 2.6875 1.59375 C 0.644531 0.132812 -0.800781 -1.691406 -1.65625 -3.890625 C -2.519531 -6.085938 -2.890625 -8.316406 -2.765625 -10.578125 C -2.648438 -12.835938 -2.082031 -14.972656 -1.0625 -16.984375 C -0.0390625 -19.003906 1.328125 -20.617188 3.046875 -21.828125 C 4.773438 -23.035156 6.734375 -23.582031 8.921875 -23.46875 C 9.753906 -23.425781 10.148438 -23.070312 10.109375 -22.40625 C 10.015625 -20.59375 10.722656 -19.082031 12.234375 -17.875 C 13.753906 -16.664062 15.644531 -16.003906 17.90625 -15.890625 C 20.476562 -15.753906 23.28125 -16.722656 26.3125 -18.796875 C 29.351562 -20.867188 31.96875 -24.332031 34.15625 -29.1875 C 34.96875 -31.03125 35.800781 -32.9375 36.65625 -34.90625 C 37.507812 -36.875 38.332031 -38.722656 39.125 -40.453125 C 39.757812 -41.847656 40.546875 -42.828125 41.484375 -43.390625 C 42.421875 -43.953125 43.5 -44.203125 44.71875 -44.140625 C 46.476562 -44.046875 47.570312 -43.582031 48 -42.75 C 48.425781 -41.925781 48.460938 -40.835938 48.109375 -39.484375 C 47.765625 -38.179688 47.15625 -36.570312 46.28125 -34.65625 C 45.414062 -32.738281 44.484375 -30.742188 43.484375 -28.671875 C 42.484375 -26.597656 41.617188 -24.625 40.890625 -22.75 C 40.171875 -20.882812 39.78125 -19.316406 39.71875 -18.046875 C 39.664062 -17.003906 39.929688 -16.097656 40.515625 -15.328125 C 41.097656 -14.554688 42.082031 -14.132812 43.46875 -14.0625 C 45.28125 -13.96875 46.960938 -14.5 48.515625 -15.65625 C 50.078125 -16.8125 51.472656 -18.378906 52.703125 -20.359375 C 53.929688 -22.347656 54.914062 -24.5625 55.65625 -27 C 56.394531 -29.4375 56.828125 -31.867188 56.953125 -34.296875 C 57.078125 -36.660156 56.765625 -38.859375 56.015625 -40.890625 C 55.265625 -42.921875 53.859375 -44.609375 51.796875 -45.953125 C 49.742188 -47.304688 46.816406 -48.082031 43.015625 -48.28125 C 40.429688 -48.414062 37.929688 -48.117188 35.515625 -47.390625 C 33.109375 -46.660156 31.113281 -45.453125 29.53125 -43.765625 C 27.957031 -42.078125 27.097656 -39.804688 26.953125 -36.953125 C 26.890625 -35.742188 27.140625 -34.722656 27.703125 -33.890625 C 28.265625 -33.054688 28.988281 -32.613281 29.875 -32.5625 C 30.457031 -32.476562 30.570312 -31.890625 30.21875 -30.796875 C 29.863281 -29.710938 29.140625 -28.492188 28.046875 -27.140625 C 26.953125 -25.796875 25.578125 -24.640625 23.921875 -23.671875 C 22.273438 -22.710938 20.457031 -22.285156 18.46875 -22.390625 C 16.21875 -22.515625 14.347656 -23.179688 12.859375 -24.390625 C 11.378906 -25.597656 10.300781 -27.144531 9.625 -29.03125 C 8.957031 -30.914062 8.675781 -32.90625 8.78125 -35 C 8.96875 -38.519531 9.925781 -41.804688 11.65625 -44.859375 C 13.382812 -47.921875 15.742188 -50.585938 18.734375 -52.859375 C 21.722656 -55.128906 25.222656 -56.851562 29.234375 -58.03125 C 33.242188 -59.207031 37.617188 -59.671875 42.359375 -59.421875 C 47.648438 -59.148438 52.0625 -58.21875 55.59375 -56.625 C 59.125 -55.03125 61.910156 -52.953125 63.953125 -50.390625 C 65.992188 -47.828125 67.414062 -44.929688 68.21875 -41.703125 C 69.03125 -38.484375 69.34375 -35.113281 69.15625 -31.59375 C 68.925781 -27.1875 68.035156 -22.882812 66.484375 -18.6875 C 64.941406 -14.5 62.9375 -10.738281 60.46875 -7.40625 C 58.007812 -4.082031 55.238281 -1.46875 52.15625 0.4375 C 49.070312 2.351562 45.878906 3.222656 42.578125 3.046875 C 39.160156 2.867188 36.515625 1.695312 34.640625 -0.46875 C 32.765625 -2.644531 31.804688 -5.441406 31.765625 -8.859375 C 29.234375 -4.679688 26.164062 -1.429688 22.5625 0.890625 C 18.957031 3.210938 15.035156 4.265625 10.796875 4.046875 Z M 10.796875 4.046875 "/></g></g></g><g fill="#8257e7" fill-opacity="1"><g transform="translate(248.696273, 176.409544)"><g><path d="M 6.25 -38.8125 C 5.8125 -38.75 5.410156 -39.125 5.046875 -39.9375 C 4.679688 -40.75 4.414062 -41.785156 4.25 -43.046875 C 4.050781 -44.523438 4 -46.1875 4.09375 -48.03125 C 4.1875 -49.882812 4.492188 -51.675781 5.015625 -53.40625 C 5.535156 -55.144531 6.285156 -56.609375 7.265625 -57.796875 C 8.242188 -58.984375 9.492188 -59.679688 11.015625 -59.890625 C 12.109375 -60.035156 12.9375 -59.863281 13.5 -59.375 C 14.070312 -58.894531 14.421875 -58.191406 14.546875 -57.265625 C 14.691406 -56.171875 14.578125 -54.847656 14.203125 -53.296875 C 13.828125 -51.753906 13.289062 -50.140625 12.59375 -48.453125 C 11.894531 -46.773438 11.140625 -45.226562 10.328125 -43.8125 C 9.523438 -42.394531 8.753906 -41.222656 8.015625 -40.296875 C 7.273438 -39.367188 6.6875 -38.875 6.25 -38.8125 Z M 6.25 -38.8125 "/></g></g></g><g fill="#8257e7" fill-opacity="1"><g transform="translate(270.395603, 176.927894)"><g><path d="M 73.96875 -51.828125 C 74.125 -52.535156 74.46875 -52.882812 75 -52.875 C 75.53125 -52.863281 76.09375 -52.6875 76.6875 -52.34375 C 77.289062 -52.007812 77.789062 -51.625 78.1875 -51.1875 C 77.976562 -50.164062 77.804688 -48.734375 77.671875 -46.890625 C 77.535156 -45.046875 77.296875 -43.039062 76.953125 -40.875 C 76.609375 -38.71875 76.066406 -36.578125 75.328125 -34.453125 C 74.597656 -32.328125 73.585938 -30.429688 72.296875 -28.765625 C 71.003906 -27.109375 69.300781 -25.882812 67.1875 -25.09375 C 64.34375 -24.03125 61.804688 -24.226562 59.578125 -25.6875 C 57.359375 -27.15625 55.59375 -29.644531 54.28125 -33.15625 C 53.445312 -35.382812 52.90625 -37.65625 52.65625 -39.96875 C 52.40625 -42.289062 52.296875 -44.515625 52.328125 -46.640625 C 52.359375 -48.773438 52.382812 -50.640625 52.40625 -52.234375 C 52.4375 -53.835938 52.304688 -55.023438 52.015625 -55.796875 C 51.585938 -56.941406 50.878906 -57.332031 49.890625 -56.96875 C 49.222656 -56.71875 48.675781 -56.140625 48.25 -55.234375 C 47.820312 -54.335938 47.53125 -52.90625 47.375 -50.9375 C 47.226562 -48.96875 47.238281 -46.265625 47.40625 -42.828125 C 47.570312 -39.390625 47.945312 -34.984375 48.53125 -29.609375 C 48.875 -26.671875 48.554688 -24.578125 47.578125 -23.328125 C 46.597656 -22.078125 45.460938 -21.210938 44.171875 -20.734375 C 41.742188 -19.828125 39.960938 -19.632812 38.828125 -20.15625 C 37.703125 -20.675781 36.835938 -21.738281 36.234375 -23.34375 C 35.703125 -24.78125 35.34375 -26.453125 35.15625 -28.359375 C 34.96875 -30.265625 34.800781 -32.273438 34.65625 -34.390625 C 34.507812 -36.515625 34.304688 -38.628906 34.046875 -40.734375 C 33.796875 -42.847656 33.34375 -44.785156 32.6875 -46.546875 C 32.125 -48.046875 31.570312 -48.972656 31.03125 -49.328125 C 30.488281 -49.679688 29.957031 -49.765625 29.4375 -49.578125 C 28.300781 -49.148438 27.847656 -48.15625 28.078125 -46.59375 C 29.492188 -37.59375 29.648438 -29.957031 28.546875 -23.6875 C 27.441406 -17.414062 25.375 -12.390625 22.34375 -8.609375 C 19.3125 -4.828125 15.601562 -2.117188 11.21875 -0.484375 C 8.21875 0.628906 5.484375 0.925781 3.015625 0.40625 C 0.554688 -0.113281 -1.535156 -1.195312 -3.265625 -2.84375 C -4.992188 -4.488281 -6.253906 -6.367188 -7.046875 -8.484375 C -7.835938 -10.597656 -8.164062 -12.785156 -8.03125 -15.046875 C -7.90625 -17.304688 -7.296875 -19.332031 -6.203125 -21.125 C -5.109375 -22.914062 -3.53125 -24.195312 -1.46875 -24.96875 C -0.6875 -25.257812 -0.179688 -25.09375 0.046875 -24.46875 C 0.679688 -22.769531 1.945312 -21.671875 3.84375 -21.171875 C 5.738281 -20.671875 7.789062 -20.835938 10 -21.671875 C 12.175781 -22.484375 14.019531 -23.769531 15.53125 -25.53125 C 17.050781 -27.300781 18.269531 -29.328125 19.1875 -31.609375 C 20.101562 -33.898438 20.742188 -36.289062 21.109375 -38.78125 C 21.472656 -41.269531 21.566406 -43.660156 21.390625 -45.953125 C 21.210938 -48.242188 20.8125 -50.21875 20.1875 -51.875 C 19.414062 -53.9375 18.347656 -55.332031 16.984375 -56.0625 C 15.617188 -56.789062 14.109375 -56.847656 12.453125 -56.234375 C 10.597656 -55.535156 9.203125 -54.226562 8.265625 -52.3125 C 7.335938 -50.394531 7.328125 -48.222656 8.234375 -45.796875 C 8.734375 -44.460938 9.53125 -43.46875 10.625 -42.8125 C 11.71875 -42.164062 12.832031 -42.054688 13.96875 -42.484375 C 14.832031 -41.628906 15.226562 -40.347656 15.15625 -38.640625 C 15.082031 -36.929688 14.492188 -35.238281 13.390625 -33.5625 C 12.285156 -31.882812 10.566406 -30.609375 8.234375 -29.734375 C 5.179688 -28.597656 2.234375 -28.765625 -0.609375 -30.234375 C -3.453125 -31.703125 -5.546875 -34.25 -6.890625 -37.875 C -7.992188 -40.8125 -8.445312 -43.832031 -8.25 -46.9375 C -8.0625 -50.039062 -7.226562 -53.039062 -5.75 -55.9375 C -4.28125 -58.84375 -2.191406 -61.476562 0.515625 -63.84375 C 3.222656 -66.21875 6.515625 -68.128906 10.390625 -69.578125 C 17.160156 -72.109375 23.101562 -72.148438 28.21875 -69.703125 C 33.34375 -67.265625 37.453125 -62.9375 40.546875 -56.71875 C 40.828125 -59.894531 41.382812 -63.082031 42.21875 -66.28125 C 43.0625 -69.476562 44.15625 -72.457031 45.5 -75.21875 C 46.851562 -77.988281 48.414062 -80.382812 50.1875 -82.40625 C 51.96875 -84.425781 53.945312 -85.84375 56.125 -86.65625 C 59.113281 -87.769531 61.523438 -87.757812 63.359375 -86.625 C 65.203125 -85.488281 66.519531 -83.859375 67.3125 -81.734375 C 67.882812 -80.191406 68.164062 -78.5625 68.15625 -76.84375 C 68.15625 -75.132812 67.894531 -73.625 67.375 -72.3125 C 66.863281 -71 66.144531 -70.171875 65.21875 -69.828125 C 64.65625 -69.617188 64.113281 -69.578125 63.59375 -69.703125 C 63.070312 -69.835938 62.550781 -69.804688 62.03125 -69.609375 C 61.257812 -69.328125 60.710938 -68.59375 60.390625 -67.40625 C 60.066406 -66.226562 59.921875 -64.800781 59.953125 -63.125 C 59.984375 -61.457031 60.128906 -59.734375 60.390625 -57.953125 C 60.648438 -56.171875 60.953125 -54.488281 61.296875 -52.90625 C 61.648438 -51.332031 62 -50.082031 62.34375 -49.15625 C 62.945312 -47.550781 63.785156 -46.375 64.859375 -45.625 C 65.929688 -44.882812 67.347656 -44.84375 69.109375 -45.5 C 71.585938 -46.425781 73.207031 -48.535156 73.96875 -51.828125 Z M 73.96875 -51.828125 "/></g></g></g><g fill="#8257e7" fill-opacity="1"><g transform="translate(351.75537, 139.363411)"><g><path d="M -11.9375 -46.21875 C -13.5625 -45.09375 -15.207031 -44.46875 -16.875 -44.34375 C -18.539062 -44.226562 -20.003906 -45.070312 -21.265625 -46.875 C -22.941406 -49.28125 -23.414062 -51.390625 -22.6875 -53.203125 C -21.96875 -55.015625 -20.675781 -56.566406 -18.8125 -57.859375 C -17.101562 -59.054688 -15.378906 -59.6875 -13.640625 -59.75 C -11.910156 -59.8125 -10.394531 -58.71875 -9.09375 -56.46875 C -7.820312 -54.269531 -7.535156 -52.320312 -8.234375 -50.625 C -8.929688 -48.925781 -10.164062 -47.457031 -11.9375 -46.21875 Z M 6.109375 -4.25 C 3.847656 -2.675781 1.664062 -2.382812 -0.4375 -3.375 C -2.539062 -4.363281 -4.410156 -6.035156 -6.046875 -8.390625 C -7.148438 -9.972656 -8.15625 -11.757812 -9.0625 -13.75 C -9.96875 -15.738281 -10.742188 -17.722656 -11.390625 -19.703125 C -13.242188 -25.722656 -14.347656 -30.578125 -14.703125 -34.265625 C -15.054688 -37.953125 -14.257812 -40.472656 -12.3125 -41.828125 C -10.769531 -42.898438 -9.289062 -42.421875 -7.875 -40.390625 C -6.925781 -39.023438 -6.210938 -37.445312 -5.734375 -35.65625 C -5.265625 -33.863281 -4.796875 -32.101562 -4.328125 -30.375 C -3.867188 -28.65625 -3.210938 -27.191406 -2.359375 -25.984375 C -1.566406 -24.835938 -0.695312 -24.179688 0.25 -24.015625 C 1.207031 -23.847656 2.140625 -24.078125 3.046875 -24.703125 C 4.085938 -25.429688 4.738281 -26.359375 5 -27.484375 C 5.257812 -28.609375 5.382812 -29.90625 5.375 -31.375 C 5.363281 -32.15625 5.6875 -32.675781 6.34375 -32.9375 C 7 -33.195312 7.679688 -33.222656 8.390625 -33.015625 C 9.109375 -32.804688 9.5 -32.421875 9.5625 -31.859375 C 9.613281 -30.828125 9.804688 -29.414062 10.140625 -27.625 C 10.484375 -25.84375 10.773438 -23.863281 11.015625 -21.6875 C 11.253906 -19.507812 11.316406 -17.316406 11.203125 -15.109375 C 11.085938 -12.910156 10.648438 -10.859375 9.890625 -8.953125 C 9.128906 -7.046875 7.867188 -5.476562 6.109375 -4.25 Z M 6.109375 -4.25 "/></g></g></g><g fill="#8257e7" fill-opacity="1"><g transform="translate(379.814472, 122.318535)"><g><path d="M 3.546875 -3.828125 C 2.234375 -2.410156 0.796875 -1.707031 -0.765625 -1.71875 C -2.328125 -1.738281 -3.734375 -2.328125 -4.984375 -3.484375 C -6.398438 -4.804688 -8.054688 -6.570312 -9.953125 -8.78125 C -11.859375 -11 -13.648438 -13.675781 -15.328125 -16.8125 C -17.046875 -19.988281 -18.554688 -22.9375 -19.859375 -25.65625 C -21.171875 -28.375 -22.070312 -30.726562 -22.5625 -32.71875 C -23.050781 -34.707031 -22.921875 -36.109375 -22.171875 -36.921875 C -21.535156 -37.609375 -20.847656 -37.875 -20.109375 -37.71875 C -19.378906 -37.570312 -18.710938 -37.21875 -18.109375 -36.65625 C -17.097656 -35.71875 -16.128906 -35.382812 -15.203125 -35.65625 C -14.273438 -35.925781 -13.847656 -37 -13.921875 -38.875 C -13.960938 -41.019531 -13.726562 -42.976562 -13.21875 -44.75 C -12.707031 -46.519531 -11.832031 -48.070312 -10.59375 -49.40625 C -9.195312 -50.90625 -7.726562 -51.75 -6.1875 -51.9375 C -4.65625 -52.132812 -3.210938 -51.867188 -1.859375 -51.140625 C -1.390625 -50.859375 -1.007812 -50.804688 -0.71875 -50.984375 C -0.4375 -51.171875 -0.347656 -51.726562 -0.453125 -52.65625 C -0.660156 -55.03125 -0.503906 -57.175781 0.015625 -59.09375 C 0.546875 -61.007812 1.488281 -62.695312 2.84375 -64.15625 C 5.050781 -66.539062 7.15625 -67.707031 9.15625 -67.65625 C 11.15625 -67.613281 12.921875 -66.878906 14.453125 -65.453125 C 15.503906 -64.472656 16.316406 -63.414062 16.890625 -62.28125 C 17.460938 -61.15625 18.007812 -60.046875 18.53125 -58.953125 C 19.0625 -57.867188 19.832031 -56.859375 20.84375 -55.921875 C 22.9375 -53.972656 24.90625 -53.988281 26.75 -55.96875 C 27.601562 -56.894531 28.03125 -57.941406 28.03125 -59.109375 C 28.03125 -60.273438 27.863281 -61.582031 27.53125 -63.03125 C 27.351562 -63.800781 27.578125 -64.378906 28.203125 -64.765625 C 28.835938 -65.160156 29.515625 -65.34375 30.234375 -65.3125 C 30.960938 -65.28125 31.414062 -64.957031 31.59375 -64.34375 C 31.851562 -63.34375 32.335938 -61.988281 33.046875 -60.28125 C 33.753906 -58.570312 34.441406 -56.671875 35.109375 -54.578125 C 35.773438 -52.492188 36.257812 -50.335938 36.5625 -48.109375 C 36.863281 -45.878906 36.804688 -43.734375 36.390625 -41.671875 C 35.984375 -39.609375 35.007812 -37.742188 33.46875 -36.078125 C 31.664062 -34.140625 29.769531 -33.378906 27.78125 -33.796875 C 25.800781 -34.210938 23.945312 -35.222656 22.21875 -36.828125 C 20.675781 -38.253906 19.398438 -39.828125 18.390625 -41.546875 C 17.390625 -43.265625 16.507812 -44.867188 15.75 -46.359375 C 15 -47.859375 14.222656 -48.984375 13.421875 -49.734375 C 12.734375 -50.367188 12.003906 -50.640625 11.234375 -50.546875 C 10.472656 -50.460938 9.773438 -50.078125 9.140625 -49.390625 C 8.046875 -48.210938 7.523438 -46.675781 7.578125 -44.78125 C 7.640625 -42.894531 8.117188 -40.972656 9.015625 -39.015625 C 9.910156 -37.066406 11.125 -35.378906 12.65625 -33.953125 C 13.539062 -33.128906 14.289062 -32.5625 14.90625 -32.25 C 15.519531 -31.945312 16.273438 -31.378906 17.171875 -30.546875 C 18.015625 -29.765625 18.769531 -28.816406 19.4375 -27.703125 C 20.101562 -26.597656 20.394531 -25.367188 20.3125 -24.015625 C 20.226562 -22.671875 19.472656 -21.234375 18.046875 -19.703125 C 16.765625 -18.328125 15.3125 -17.53125 13.6875 -17.3125 C 12.0625 -17.09375 10.257812 -17.898438 8.28125 -19.734375 C 6.738281 -21.160156 5.492188 -22.78125 4.546875 -24.59375 C 3.597656 -26.414062 2.734375 -28.160156 1.953125 -29.828125 C 1.171875 -31.492188 0.273438 -32.796875 -0.734375 -33.734375 C -1.546875 -34.484375 -2.34375 -34.828125 -3.125 -34.765625 C -3.90625 -34.703125 -4.613281 -34.328125 -5.25 -33.640625 C -6.34375 -32.460938 -6.851562 -30.921875 -6.78125 -29.015625 C -6.707031 -27.109375 -6.160156 -25.117188 -5.140625 -23.046875 C -4.128906 -20.972656 -2.710938 -19.085938 -0.890625 -17.390625 L 1.84375 -14.859375 C 2.84375 -13.929688 3.726562 -12.882812 4.5 -11.71875 C 5.269531 -10.5625 5.640625 -9.316406 5.609375 -7.984375 C 5.578125 -6.660156 4.890625 -5.273438 3.546875 -3.828125 Z M 3.546875 -3.828125 "/></g></g></g><g fill="#8257e7" fill-opacity="1"><g transform="translate(425.690926, 66.020396)"><g><path d="M -30.078125 -37.0625 C -31.085938 -35.363281 -32.328125 -34.109375 -33.796875 -33.296875 C -35.265625 -32.492188 -36.945312 -32.65625 -38.84375 -33.78125 C -41.363281 -35.269531 -42.671875 -36.988281 -42.765625 -38.9375 C -42.859375 -40.882812 -42.332031 -42.832031 -41.1875 -44.78125 C -40.113281 -46.582031 -38.800781 -47.875 -37.25 -48.65625 C -35.707031 -49.4375 -33.878906 -49.070312 -31.765625 -47.5625 C -29.691406 -46.082031 -28.617188 -44.425781 -28.546875 -42.59375 C -28.472656 -40.757812 -28.984375 -38.914062 -30.078125 -37.0625 Z M 3.78125 -6.40625 C 2.382812 -4.039062 0.523438 -2.867188 -1.796875 -2.890625 C -4.117188 -2.910156 -6.519531 -3.65625 -9 -5.125 C -10.65625 -6.101562 -12.304688 -7.304688 -13.953125 -8.734375 C -15.609375 -10.160156 -17.140625 -11.640625 -18.546875 -13.171875 C -22.742188 -17.878906 -25.769531 -21.835938 -27.625 -25.046875 C -29.476562 -28.253906 -29.800781 -30.878906 -28.59375 -32.921875 C -27.632812 -34.535156 -26.085938 -34.710938 -23.953125 -33.453125 C -22.535156 -32.609375 -21.238281 -31.46875 -20.0625 -30.03125 C -18.882812 -28.601562 -17.722656 -27.203125 -16.578125 -25.828125 C -15.441406 -24.453125 -14.234375 -23.390625 -12.953125 -22.640625 C -11.765625 -21.929688 -10.695312 -21.695312 -9.75 -21.9375 C -8.8125 -22.1875 -8.0625 -22.785156 -7.5 -23.734375 C -6.851562 -24.828125 -6.644531 -25.9375 -6.875 -27.0625 C -7.113281 -28.195312 -7.546875 -29.429688 -8.171875 -30.765625 C -8.515625 -31.484375 -8.4375 -32.09375 -7.9375 -32.59375 C -7.445312 -33.09375 -6.832031 -33.398438 -6.09375 -33.515625 C -5.363281 -33.628906 -4.851562 -33.441406 -4.5625 -32.953125 C -4.082031 -32.035156 -3.316406 -30.832031 -2.265625 -29.34375 C -1.222656 -27.863281 -0.140625 -26.179688 0.984375 -24.296875 C 2.117188 -22.410156 3.085938 -20.441406 3.890625 -18.390625 C 4.703125 -16.347656 5.160156 -14.300781 5.265625 -12.25 C 5.367188 -10.207031 4.875 -8.257812 3.78125 -6.40625 Z M 3.78125 -6.40625 "/></g></g></g></g></g></svg>